<?xml version="1.0" standalone="no"?>
<!DOCTYPE svg PUBLIC "-//W3C//DTD SVG 20010904//EN"
 "http://www.w3.org/TR/2001/REC-SVG-20010904/DTD/svg10.dtd">
<svg version="1.0" xmlns="http://www.w3.org/2000/svg"
 width="300.000000pt" height="300.000000pt" viewBox="0 0 300.000000 300.000000"
 preserveAspectRatio="xMidYMid meet">
<metadata>
Created by potrace 1.11, written by Peter Selinger 2001-2013
</metadata>
<g transform="translate(0.000000,300.000000) scale(0.100000,-0.100000)"
fill="#000000" stroke="none">
<path d="M0 1500 l0 -1500 1500 0 1500 0 0 1500 0 1500 -1500 0 -1500 0 0
-1500z m1019 609 c1 8 4 11 7 8 4 -4 1 -13 -6 -21 -8 -10 -10 -29 -5 -54 3
-22 7 -53 7 -71 1 -32 7 -38 24 -22 5 5 20 12 34 15 18 5 15 1 -11 -13 -33
-18 -37 -25 -42 -72 -4 -29 -5 -54 -4 -55 9 -9 97 33 97 46 0 13 2 13 9 1 7
-12 13 -12 24 -3 7 7 17 9 20 5 4 -3 7 0 7 7 0 7 3 10 6 7 11 -10 -17 -37 -37
-37 -11 0 -19 -4 -19 -9 0 -5 -8 -7 -19 -4 -23 6 -38 -14 -22 -30 9 -9 14 -9
20 2 6 10 10 10 16 1 4 -7 -1 -14 -15 -17 -19 -5 -21 -10 -14 -42 4 -20 7 -43
6 -52 -1 -32 33 -8 51 35 10 24 27 52 39 62 l21 19 -16 -30 c-8 -17 -18 -50
-22 -73 l-6 -41 46 1 c50 1 77 -11 29 -13 -16 -1 -37 0 -47 1 -14 1 -17 -3
-13 -17 9 -28 10 -104 2 -140 -5 -20 -4 -33 2 -33 18 0 33 67 28 122 l-6 53
14 -40 c28 -79 13 -151 -44 -210 -31 -32 -40 -62 -26 -84 7 -11 5 -13 -7 -8
-10 4 -17 2 -17 -5 0 -7 -5 -6 -15 2 -21 18 -27 8 -15 -24 17 -45 13 -76 -10
-76 -11 0 -20 -7 -20 -15 0 -7 -7 -18 -16 -23 -19 -11 -74 -3 -74 10 0 6 -11
8 -24 6 -19 -4 -31 5 -62 44 -32 39 -44 48 -70 48 -28 0 -32 4 -38 34 -4 23 0
54 13 93 13 37 19 75 16 105 -4 59 -9 66 -37 63 -14 -1 -15 0 -5 2 11 3 16 10
13 19 -4 12 -2 12 14 4 11 -6 20 -7 21 -3 0 4 5 -3 10 -16 8 -20 11 -22 27
-10 15 12 16 12 4 -2 -10 -13 -9 -23 3 -50 l14 -34 1 48 c0 34 -4 49 -15 53
-14 6 -13 8 1 19 12 8 14 14 5 19 -6 4 -8 12 -5 18 4 6 -2 8 -17 4 -20 -6 -21
-5 -7 4 13 8 15 16 7 43 -5 17 -9 45 -9 61 0 23 -3 27 -17 21 -15 -5 -14 -3 2
13 11 10 22 16 25 11 8 -12 58 -22 76 -15 15 6 14 9 -6 31 -12 13 -36 27 -53
31 -21 4 -26 9 -16 14 8 5 24 1 42 -12 l29 -21 -6 24 -7 24 14 -24 c11 -18 16
-20 20 -10 5 12 12 -33 8 -54 -1 -5 3 -6 8 -3 5 4 12 2 16 -4 16 -27 27 -6 23
48 l-3 57 -55 28 c-30 15 -46 25 -36 22 10 -3 27 -3 37 0 16 5 14 11 -18 53
-19 26 -41 50 -47 54 -6 4 1 8 17 8 23 0 27 -4 27 -27 0 -18 13 -39 43 -66 23
-22 36 -37 28 -32 -9 5 -12 3 -9 -5 2 -8 10 -16 16 -18 8 -2 12 12 12 47 0 45
-3 53 -25 63 -13 6 -22 15 -18 21 3 5 9 3 15 -4 8 -12 9 -11 6 1 -3 8 -15 14
-29 15 -13 0 -24 5 -24 10 0 11 21 11 48 0 15 -6 17 -1 18 41 0 37 3 44 9 29
5 -12 9 -14 9 -6z m-119 -1 c0 -6 7 -20 17 -30 15 -16 11 -20 -14 -17 -5 1 -7
5 -5 10 1 6 -2 19 -8 29 -7 14 -7 20 0 20 5 0 10 -5 10 -12z m276 -20 c4 -7 3
-10 -1 -5 -5 4 -20 0 -34 -9 l-26 -15 24 20 c27 25 28 25 37 9z m50 -43 c-37
-39 -72 -54 -112 -45 -18 4 -34 5 -34 1 0 -3 -9 -12 -19 -18 -17 -11 -18 -10
-8 16 6 16 17 28 26 27 9 -1 15 6 15 16 -1 10 4 14 12 11 18 -7 18 -13 -3 -28
-14 -11 -12 -13 17 -17 28 -4 40 0 62 23 15 15 28 25 28 21 0 -3 5 -1 12 6 23
23 27 12 4 -13z m-355 -32 c13 -16 12 -17 -3 -4 -10 7 -18 15 -18 17 0 8 8 3
21 -13z m24 -33 c3 -6 -1 -7 -9 -4 -18 7 -21 14 -7 14 6 0 13 -4 16 -10z m39
-49 c-2 -3 -12 3 -22 13 -16 17 -16 18 5 5 12 -7 20 -15 17 -18z m-99 -51 c10
-11 16 -20 13 -20 -3 0 -13 9 -23 20 -10 11 -16 20 -13 20 3 0 13 -9 23 -20z
m289 -156 c3 -8 2 -12 -4 -9 -6 3 -10 10 -10 16 0 14 7 11 14 -7z m103 -10
c-3 -3 -12 -4 -19 -1 -8 3 -5 6 6 6 11 1 17 -2 13 -5z m-470 -40 c-3 -3 -12
-4 -19 -1 -8 3 -5 6 6 6 11 1 17 -2 13 -5z m47 -13 c4 -5 -3 -7 -14 -4 -23 6
-26 13 -6 13 8 0 17 -4 20 -9z m524 -8 c-10 -2 -26 -2 -35 0 -10 3 -2 5 17 5
19 0 27 -2 18 -5z m-39 -242 c-4 -112 -20 -141 -83 -141 -45 0 -45 10 0 45 48
36 64 79 65 167 0 59 2 68 10 48 6 -14 9 -67 8 -119z m44 -29 c-10 -10 -20
-17 -22 -16 -6 5 20 34 30 34 5 0 1 -8 -8 -18z m-123 -16 c0 -3 -4 -8 -10 -11
-5 -3 -10 -1 -10 4 0 6 5 11 10 11 6 0 10 -2 10 -4z m-586 -242 c9 -3 16 -11
16 -16 0 -7 -4 -7 -12 0 -7 5 -22 12 -33 15 -15 3 -16 5 -3 6 9 0 23 -2 32 -5z
m-63 -436 c0 -13 3 -17 6 -10 8 19 21 14 26 -10 4 -23 4 -23 15 2 l11 25 0
-26 c1 -25 -1 -26 -54 -27 l-55 0 0 34 c0 30 3 34 25 34 19 0 25 -5 26 -22z
m385 2 c9 0 14 -10 13 -27 -2 -24 -2 -25 -6 -5 -2 12 -8 22 -13 22 -5 0 -11
-10 -13 -22 -2 -13 -5 -5 -5 17 0 22 2 34 5 28 2 -7 11 -13 19 -13z m131 -7
l10 -28 8 28 c11 39 25 33 24 -10 -1 -21 -3 -30 -6 -20 -5 18 -5 18 -19 0 -13
-17 -14 -17 -21 7 l-7 25 -7 -25 c-6 -22 -7 -20 -8 13 -1 44 11 48 26 10z
m226 20 c-7 -2 -14 -19 -14 -36 -2 -28 -2 -29 -6 -7 -3 14 -10 31 -15 38 -8 9
-4 12 18 11 16 0 23 -3 17 -6z m-399 -36 c2 -35 -18 -29 -22 7 -2 19 1 27 9
24 7 -2 13 -16 13 -31z m-195 -4 l0 -28 -11 25 c-11 25 -11 25 -15 3 -3 -13
-8 -23 -13 -23 -5 0 -10 10 -13 23 -4 22 -4 22 -15 -3 l-11 -25 0 28 c-1 25 2
27 39 27 37 0 40 -2 39 -27z m18 -10 c-3 -10 -5 -4 -5 12 0 17 2 24 5 18 2 -7
2 -21 0 -30z m62 10 c-2 -24 -2 -25 -6 -5 -2 12 -8 22 -13 22 -5 0 -11 -10
-13 -22 -4 -20 -4 -19 -6 5 -1 21 4 27 19 27 15 0 20 -6 19 -27z m59 -5 c-2
-25 -8 -33 -22 -33 -11 0 -20 8 -22 20 -5 31 3 45 26 45 18 0 21 -5 18 -32z
m170 15 c2 -8 -6 -13 -20 -14 -22 0 -22 -1 -3 -9 16 -7 17 -9 3 -9 -21 -1 -32
15 -24 35 7 18 37 15 44 -3z m152 -8 c0 -18 -5 -25 -20 -25 -20 0 -28 28 -13
43 15 16 33 6 33 -18z m30 8 c0 -15 2 -14 16 3 14 18 15 18 8 -6 -8 -30 -23
-50 -36 -50 -7 0 -7 5 0 13 7 8 7 18 2 27 -13 20 -12 30 0 30 6 0 10 -8 10
-17z m185 -8 c0 -28 -35 -33 -42 -6 -7 28 -21 27 -26 -1 -4 -20 -4 -19 -6 4
-1 25 2 27 37 25 30 -2 37 -6 37 -22z m55 0 c0 -18 -5 -25 -20 -25 -15 0 -20
7 -20 25 0 18 5 25 20 25 15 0 20 -7 20 -25z m-903 -71 c-3 -3 -12 -4 -19 -1
-8 3 -5 6 6 6 11 1 17 -2 13 -5z m135 -3 c-11 -6 -10 -10 5 -16 10 -5 21 -9
25 -9 15 -2 17 -13 1 -13 -9 0 -25 7 -34 15 -19 16 -16 32 4 32 8 0 8 -3 -1
-9z m325 -28 c-3 -10 -5 -4 -5 12 0 17 2 24 5 18 2 -7 2 -21 0 -30z m176 24
c3 -8 1 -20 -4 -28 -6 -10 -9 -7 -9 14 0 29 5 35 13 14z m33 -10 c0 -13 -6
-24 -13 -24 -8 0 -8 7 0 24 13 29 15 29 13 0z m-649 -19 c-3 -7 -5 -2 -5 12 0
14 2 19 5 13 2 -7 2 -19 0 -25z m500 7 c-4 -8 -12 -15 -19 -14 -10 0 -10 2 0
6 6 2 12 12 12 21 0 8 3 13 6 9 4 -3 4 -13 1 -22z m-302 -14 c-6 -5 -25 10
-25 20 0 5 6 4 14 -3 8 -7 12 -15 11 -17z m22 7 c-3 -8 -6 -5 -6 6 -1 11 2 17
5 13 3 -3 4 -12 1 -19z m120 0 c-3 -8 -6 -5 -6 6 -1 11 2 17 5 13 3 -3 4 -12
1 -19z m80 0 c-3 -8 -6 -5 -6 6 -1 11 2 17 5 13 3 -3 4 -12 1 -19z m110 0 c-3
-8 -6 -5 -6 6 -1 11 2 17 5 13 3 -3 4 -12 1 -19z m20 0 c-3 -8 -6 -5 -6 6 -1
11 2 17 5 13 3 -3 4 -12 1 -19z m120 0 c-3 -8 -6 -5 -6 6 -1 11 2 17 5 13 3
-3 4 -12 1 -19z m40 0 c-3 -8 -6 -5 -6 6 -1 11 2 17 5 13 3 -3 4 -12 1 -19z
m50 0 c-3 -8 -6 -5 -6 6 -1 11 2 17 5 13 3 -3 4 -12 1 -19z m50 0 c-3 -8 -6
-5 -6 6 -1 11 2 17 5 13 3 -3 4 -12 1 -19z m40 0 c-3 -8 -6 -5 -6 6 -1 11 2
17 5 13 3 -3 4 -12 1 -19z m-890 -150 c-3 -8 -6 -5 -6 6 -1 11 2 17 5 13 3 -3
4 -12 1 -19z m169 -5 c-4 -4 -12 -1 -19 7 -9 10 -9 11 1 6 7 -4 12 -2 13 6 0
11 2 11 6 0 3 -7 2 -16 -1 -19z m64 13 c0 -3 -4 -8 -10 -11 -5 -3 -10 -1 -10
4 0 6 5 11 10 11 6 0 10 -2 10 -4z"/>
<path d="M1048 1819 c-24 -13 -23 -29 2 -29 13 0 20 7 20 20 0 23 1 23 -22 9z"/>
<path d="M1030 1745 c0 -52 21 -48 34 8 5 23 3 27 -14 27 -16 0 -20 -7 -20
-35z"/>
<path d="M860 1753 c1 -5 11 -28 24 -52 l23 -44 11 46 c14 55 15 67 2 47 -6
-10 -10 -11 -10 -2 0 6 -11 12 -25 12 -14 0 -25 -3 -25 -7z"/>
<path d="M950 1726 c0 -30 9 -56 20 -56 11 0 31 60 24 71 -3 5 -14 9 -25 9
-13 0 -19 -7 -19 -24z"/>
<path d="M1090 1650 c0 -5 6 -10 13 -10 8 0 8 -3 -2 -9 -8 -5 -15 -17 -16 -28
-1 -10 -7 -28 -13 -40 -14 -26 -15 -43 -3 -43 5 0 16 17 24 38 l16 37 0 -32
c1 -23 6 -33 16 -33 13 0 15 12 13 65 -3 60 -5 65 -25 65 -13 0 -23 -4 -23
-10z"/>
<path d="M1060 1502 c0 -7 5 -12 11 -12 5 0 7 -5 3 -11 -4 -7 2 -9 17 -7 12 1
24 10 27 18 4 12 2 13 -9 3 -10 -10 -16 -9 -31 4 -11 10 -18 11 -18 5z"/>
<path d="M530 690 c0 -5 5 -10 10 -10 6 0 10 5 10 10 0 6 -4 10 -10 10 -5 0
-10 -4 -10 -10z"/>
<path d="M530 660 c0 -5 5 -10 10 -10 6 0 10 5 10 10 0 6 -4 10 -10 10 -5 0
-10 -4 -10 -10z"/>
<path d="M816 671 c-4 -5 -2 -12 3 -15 5 -4 12 -2 15 3 4 5 2 12 -3 15 -5 4
-12 2 -15 -3z"/>
</g>
</svg>
