<?xml version="1.0" encoding="UTF-8"?>
<svg width="179px" height="179px" viewBox="0 0 179 179" version="1.1" xmlns="http://www.w3.org/2000/svg" xmlns:xlink="http://www.w3.org/1999/xlink">
    <!-- Generator: Sketch 54.1 (76490) - https://sketchapp.com -->
    <title>pounds-sticker-svgrepo-com</title>
    <desc>Created with Sketch.</desc>
    <g id="Page-1" stroke="none" stroke-width="1" fill="none" fill-rule="evenodd">
        <g id="web-bits" transform="translate(-813.000000, -564.000000)" fill="#EBCB56" fill-rule="nonzero">
            <g id="pounds-sticker-svgrepo-com" transform="translate(813.000000, 564.000000)">
                <path d="M162.86,55.802 L174.18,60.003 L167.873,70.296 L178.196,76.555 L170.051,85.475 L179.001,93.572 L169.323,100.78 L176.591,110.422 L165.731,115.673 L171.03,126.515 L159.359,129.624 L162.504,141.271 L150.457,142.106 L151.346,154.153 L139.353,152.691 L137.951,164.684 L126.465,160.985 L122.813,172.495 L112.24,166.683 L106.47,177.292 L97.174,169.583 L89.507,178.903 L81.84,169.583 L72.544,177.292 L66.78,166.683 L56.201,172.495 L52.549,160.985 L41.063,164.69 L39.655,152.697 L27.668,154.159 L28.557,142.112 L16.516,141.277 L19.661,129.63 L7.99,126.521 L13.288,115.679 L2.422,110.428 L9.678,100.786 L0,93.572 L8.951,85.469 L0.806,76.549 L11.128,70.29 L4.827,59.997 L16.145,55.801 L11.903,44.5 L23.813,42.525 L21.784,30.627 L33.855,30.937 L34.118,18.872 L45.909,21.462 L48.445,9.66 L59.531,14.434 L64.257,3.324 L74.24,10.114 L80.982,0.101 L89.503,8.657 L98.024,0.101 L104.772,10.113 L114.749,3.323 L119.481,14.433 L130.561,9.66 L133.102,21.463 L144.893,18.873 L145.156,30.938 L157.227,30.628 L155.192,42.526 L167.102,44.501 L162.86,55.802 Z" id="Shape"></path>
            </g>
        </g>
    </g>
</svg>